# xmcd CD database file
#
# Track frame offsets:
#	150
#	4847
#	18517
#	28290
#	51545
#	67170
#	76757
#	92210
#	110135
#	128322
#	132945
#	136230
#	152367
#	167700
#	181032
#	201865
#	227822
#	241917
#
# Disc length: 3507 seconds
#
# Revision: 0
# Processed by: cddbd v1.5.2PL0 Copyright (c) Steve Scherf et al.
# Submitted via: CDex 1.51
#
DISCID=ed0db112
DTITLE=DUKE ELLINGTON - LIVE AT THE BLUE NOTE
DYEAR=1952
DGENRE=Jazz
TTITLE0=TAKE THE "A" TRAIN
TTITLE1=BENSONALITY
TTITLE2=ALL OF ME
TTITLE3=BAKIFF
TTITLE4=THE HAWK TALKS
TTITLE5=DO NOTHING TILL YOU HEAR FROM ME
TTITLE6=VIP'S BOOGIE
TTITLE7=JAM WITH SAM
TTITLE8=JUST A SITTIN' AND A ROCKIN'
TTITLE9=MOOD INDIGO
TTITLE10=TAKE THE "A" TRAIN
TTITLE11=TULIP OR TURNIP
TTITLE12=TING-A-LING
TTITLE13=FLAMINGO
TTITLE14=ROCKIN' IN RHYTHM
TTITLE15=SOPHISTICATED LADY
TTITLE16=TAKE THE "A" TRAIN
TTITLE17=FLYING HOME
EXTD=YEAR: 1952
EXTT0=
EXTT1=
EXTT2=
EXTT3=
EXTT4=
EXTT5=
EXTT6=
EXTT7=
EXTT8=
EXTT9=
EXTT10=
EXTT11=
EXTT12=
EXTT13=
EXTT14=
EXTT15=
EXTT16=
EXTT17=
PLAYORDER=
